<?xml version="1.0" standalone="no"?>
<!DOCTYPE svg PUBLIC "-//W3C//DTD SVG 20010904//EN"
 "http://www.w3.org/TR/2001/REC-SVG-20010904/DTD/svg10.dtd">
<svg version="1.0" xmlns="http://www.w3.org/2000/svg"
 width="512.000000pt" height="512.000000pt" viewBox="0 0 512.000000 512.000000"
 preserveAspectRatio="xMidYMid meet">

<g transform="translate(0.000000,512.000000) scale(0.100000,-0.100000)"
fill="#000000" stroke="none">
<path d="M2505 4524 c-46 -7 -125 -35 -125 -43 0 -5 191 -128 425 -275 l426
-266 196 0 196 0 -429 267 c-236 147 -454 277 -484 289 -56 23 -151 36 -205
28z"/>
<path d="M3980 4183 l0 -118 68 -44 c129 -85 107 -80 323 -83 146 -2 192 0
180 8 -17 12 -469 294 -533 333 l-38 23 0 -119z"/>
<path d="M4605 3913 c44 -23 65 -44 87 -86 64 -127 4 -292 -119 -326 -25 -7
-261 -11 -690 -11 l-653 0 0 -90 0 -90 204 0 c112 0 224 -3 250 -6 l46 -7 0
-58 0 -59 388 0 c227 0 406 -5 432 -11 111 -25 165 -97 164 -219 0 -82 -13
-117 -61 -162 -41 -39 -94 -58 -161 -58 l-59 0 -7 -152 c-4 -84 -2 -533 4
-997 9 -687 8 -846 -2 -853 -7 -4 -82 -8 -165 -8 l-153 0 0 -105 0 -105 228 0
c125 0 278 -3 340 -7 l112 -6 0 -249 0 -248 73 0 c100 0 144 15 193 64 53 52
68 104 62 211 -5 84 -30 151 -66 177 -13 9 -21 32 -27 73 -8 64 -24 103 -60
146 -20 24 -23 42 -29 179 -4 90 -12 165 -20 183 -25 59 -93 107 -152 107 -16
0 -24 6 -24 18 0 9 -11 305 -25 657 -14 352 -25 661 -25 686 l0 46 41 7 c26 4
52 17 70 36 25 24 29 36 29 83 l0 54 74 5 c102 7 155 38 192 113 23 49 26 64
22 125 -8 109 -67 181 -160 196 l-38 7 0 157 0 158 45 11 c89 22 154 110 155
206 0 102 -38 172 -115 206 -34 16 -67 19 -235 18 -184 0 -193 -1 -165 -16z"/>
<path d="M776 1733 c4 -549 7 -999 8 -999 0 -1 115 -5 254 -9 l253 -8 -7 139
c-7 160 -22 206 -77 248 -20 16 -54 30 -76 33 -40 5 -40 6 -45 57 -3 28 -15
317 -26 641 -11 325 -21 617 -23 650 -2 53 0 60 18 63 43 7 92 35 108 62 9 15
17 49 17 74 l0 46 -206 0 -205 0 7 -997z"/>
<path d="M1940 2640 l0 -90 30 -6 30 -6 0 -693 0 -693 -25 -6 -25 -6 0 -204 0
-203 128 -6 c144 -8 367 -9 373 -3 2 3 1 68 -3 145 -6 111 -12 150 -28 181
-23 46 -91 90 -138 90 -31 0 -32 1 -32 43 0 23 -11 330 -25 682 -14 352 -25
650 -25 661 0 17 8 23 41 28 26 4 52 17 70 36 25 25 29 36 29 84 l0 56 -200 0
-200 0 0 -90z"/>
<path d="M3260 2640 l0 -90 30 -6 30 -6 0 -342 0 -341 59 -24 c70 -27 110 -23
142 17 21 26 21 32 15 272 -4 135 -9 287 -13 338 l-6 92 27 0 c15 0 39 6 54
14 55 28 78 74 67 132 l-6 34 -199 0 -200 0 0 -90z"/>
<path d="M3376 1639 l-56 -51 0 -218 0 -218 -25 -6 -25 -6 0 -204 0 -203 61
-7 c34 -3 149 -6 256 -6 l193 0 -5 103 c-9 168 -15 204 -38 239 -26 38 -91 78
-128 78 -25 0 -27 4 -33 61 -3 34 -6 112 -7 173 0 61 -4 146 -8 190 -6 69 -10
81 -34 102 -46 40 -86 33 -151 -27z"/>
</g>
</svg>
